<svg width="200" height="200" viewBox="0 0 200 200" fill="none" xmlns="http://www.w3.org/2000/svg">
<g clip-path="url(#clip0_290_84)">
<path d="M27.3027 161.369L51.9199 3.84686C52.0674 2.90547 52.5068 2.03419 53.1763 1.35608C53.8457 0.677972 54.7112 0.22731 55.6506 0.0677472C56.5901 -0.0918152 57.5559 0.0477868 58.4116 0.466835C59.2674 0.885883 59.9699 1.5632 60.4199 2.40311L85.8793 49.8875L96.0262 30.5656C96.412 29.8327 96.9907 29.2191 97.6998 28.7911C98.4088 28.363 99.2213 28.1368 100.05 28.1368C100.878 28.1368 101.69 28.363 102.399 28.7911C103.109 29.2191 103.687 29.8327 104.073 30.5656L172.776 161.369H27.3027Z" fill="#FFA000"/>
<path d="M112.348 100.008L85.8668 49.864L27.3027 161.369L112.348 100.008Z" fill="#F57C00"/>
<path d="M172.776 161.369L153.921 44.6938C153.782 43.8713 153.419 43.103 152.872 42.473C152.326 41.8431 151.616 41.3756 150.821 41.1219C150.027 40.8688 149.178 40.839 148.368 41.0358C147.558 41.2325 146.818 41.6483 146.228 42.2375L27.3027 161.367L93.1074 198.27C95.1397 199.405 97.4284 200 99.7559 200C102.083 200 104.372 199.405 106.404 198.27L172.776 161.369Z" fill="#FFCA28"/>
<path d="M153.921 44.6937C153.782 43.8713 153.419 43.103 152.872 42.473C152.325 41.843 151.616 41.3756 150.821 41.1218C150.027 40.8686 149.178 40.8385 148.368 41.035C147.558 41.2315 146.817 41.6469 146.227 42.2359L122.623 65.9031L104.062 30.5656C103.676 29.8327 103.097 29.2191 102.388 28.791C101.679 28.363 100.867 28.1367 100.038 28.1367C99.21 28.1367 98.3975 28.363 97.6884 28.791C96.9793 29.2191 96.4007 29.8327 96.0148 30.5656L85.868 49.8859L60.4086 2.4031C59.958 1.56203 59.2543 0.884006 58.397 0.465053C57.5398 0.0460992 56.5725 -0.0925548 55.632 0.0687247C54.6922 0.22996 53.8269 0.682563 53.1585 1.36252C52.49 2.04248 52.0522 2.91539 51.907 3.85779L27.3023 161.369H27.2227L27.3008 161.459L27.9492 161.778L146.193 43.3968C146.783 42.8046 147.524 42.3863 148.336 42.1879C149.148 41.9895 149.999 42.0188 150.795 42.2725C151.592 42.5261 152.303 42.9944 152.85 43.6258C153.398 44.2572 153.761 45.0273 153.899 45.8515L172.595 161.481L172.776 161.367L153.921 44.6937ZM27.518 161.153L51.918 4.97185C52.0629 4.02895 52.5008 3.15554 53.1696 2.47525C53.8384 1.79496 54.7042 1.34225 55.6445 1.18122C56.5851 1.02008 57.5526 1.15897 58.4099 1.57821C59.2671 1.99745 59.9708 2.6758 60.4211 3.51716L85.8773 51.0015L96.0258 31.6797C96.4116 30.9468 96.9903 30.3331 97.6994 29.9051C98.4084 29.477 99.221 29.2508 100.049 29.2508C100.877 29.2508 101.69 29.477 102.399 29.9051C103.108 30.3331 103.687 30.9468 104.073 31.6797L122.257 66.2656L27.5148 161.153H27.518Z" fill="white" fill-opacity="0.2"/>
<path opacity="0.2" d="M106.405 197.156C104.373 198.291 102.084 198.886 99.757 198.886C97.4296 198.886 95.1409 198.291 93.1086 197.156L27.4602 160.359L27.3008 161.37L93.1055 198.261C95.1377 199.395 97.4265 199.991 99.7539 199.991C102.081 199.991 104.37 199.395 106.402 198.261L172.777 161.37L172.605 160.323L106.402 197.159L106.405 197.156Z" fill="#A52714"/>
</g>
<defs>
<clipPath id="clip0_290_84">
<rect width="200" height="200" fill="white"/>
</clipPath>
</defs>
</svg>
