<svg width="200" height="200" viewBox="0 0 200 200" fill="none" xmlns="http://www.w3.org/2000/svg">
<g clip-path="url(#clip0_212_81)">
<mask id="mask0_212_81" style="mask-type:luminance" maskUnits="userSpaceOnUse" x="0" y="0" width="200" height="200">
<path d="M100 200C155.228 200 200 155.228 200 100C200 44.7715 155.228 0 100 0C44.7715 0 0 44.7715 0 100C0 155.228 44.7715 200 100 200Z" fill="white"/>
</mask>
<g mask="url(#mask0_212_81)">
<path d="M100 200C155.228 200 200 155.228 200 100C200 44.7715 155.228 0 100 0C44.7715 0 0 44.7715 0 100C0 155.228 44.7715 200 100 200Z" fill="black"/>
<path d="M166.12 175.022L76.8242 60H60V139.966H73.4594V77.0937L155.555 183.161C159.254 180.686 162.783 177.967 166.12 175.022Z" fill="url(#paint0_linear_212_81)"/>
<path d="M127.778 60H141.112V140H127.778V60Z" fill="url(#paint1_linear_212_81)"/>
</g>
</g>
<defs>
<linearGradient id="paint0_linear_212_81" x1="5963.79" y1="7004.43" x2="9507.58" y2="11396.8" gradientUnits="userSpaceOnUse">
<stop stop-color="white"/>
<stop offset="1" stop-color="white" stop-opacity="0"/>
</linearGradient>
<linearGradient id="paint1_linear_212_81" x1="794.458" y1="60" x2="771.899" y2="5934.96" gradientUnits="userSpaceOnUse">
<stop stop-color="white"/>
<stop offset="1" stop-color="white" stop-opacity="0"/>
</linearGradient>
<clipPath id="clip0_212_81">
<rect width="200" height="200" fill="white"/>
</clipPath>
</defs>
</svg>
