<svg width="250" height="200" viewBox="0 0 250 200" fill="none" xmlns="http://www.w3.org/2000/svg">
<path d="M123.555 176.562C122.734 176.562 121.914 176.328 121.172 175.937L113.672 171.484C112.539 170.859 113.086 170.625 113.477 170.508C114.961 170 115.273 169.883 116.875 168.945C117.031 168.867 117.266 168.906 117.422 168.984L123.203 172.422C123.398 172.539 123.711 172.539 123.906 172.422L146.484 159.375C146.68 159.258 146.836 159.023 146.836 158.75V132.695C146.836 132.422 146.719 132.187 146.484 132.07L123.906 119.062C123.711 118.945 123.437 118.945 123.203 119.062L100.625 132.07C100.391 132.187 100.273 132.461 100.273 132.695V158.75C100.273 158.984 100.43 159.219 100.625 159.336L106.797 162.891C110.156 164.57 112.227 162.578 112.227 160.625V134.883C112.227 134.531 112.5 134.219 112.891 134.219H115.742C116.094 134.219 116.406 134.492 116.406 134.883V160.625C116.406 165.117 113.984 167.656 109.727 167.656C108.437 167.656 107.383 167.656 104.531 166.25L98.5937 162.852C97.1484 161.992 96.2109 160.43 96.2109 158.75V132.695C96.2109 131.016 97.1094 129.414 98.5937 128.594L121.172 115.547C122.617 114.726 124.492 114.726 125.898 115.547L148.477 128.594C149.922 129.453 150.859 131.016 150.859 132.695V158.75C150.859 160.43 149.961 162.031 148.477 162.852L125.898 175.898C125.234 176.328 124.414 176.562 123.555 176.562ZM141.797 150.859C141.797 145.977 138.516 144.687 131.562 143.75C124.531 142.812 123.828 142.344 123.828 140.703C123.828 139.336 124.414 137.539 129.609 137.539C134.258 137.539 135.977 138.555 136.68 141.68C136.758 141.992 136.992 142.187 137.305 142.187H140.234C140.43 142.187 140.586 142.109 140.703 141.992C140.82 141.836 140.898 141.68 140.859 141.484C140.391 136.094 136.836 133.594 129.609 133.594C123.164 133.594 119.336 136.328 119.336 140.859C119.336 145.82 123.164 147.148 129.336 147.773C136.719 148.516 137.305 149.57 137.305 151.016C137.305 153.555 135.273 154.609 130.508 154.609C124.531 154.609 123.203 153.125 122.773 150.156C122.734 149.844 122.461 149.609 122.109 149.609H119.18C118.828 149.609 118.516 149.883 118.516 150.273C118.516 154.062 120.586 158.594 130.469 158.594C137.695 158.594 141.797 155.781 141.797 150.859ZM163.086 131.289C163.086 133.672 161.133 135.625 158.75 135.625C156.367 135.625 154.414 133.672 154.414 131.289C154.414 128.828 156.445 126.953 158.75 126.953C161.094 126.914 163.086 128.828 163.086 131.289ZM162.383 131.289C162.383 129.258 160.742 127.656 158.711 127.656C156.719 127.656 155.078 129.258 155.078 131.289C155.078 133.32 156.719 134.961 158.711 134.961C160.742 134.922 162.383 133.281 162.383 131.289ZM160.625 133.711H159.609C159.57 133.476 159.414 132.227 159.414 132.187C159.336 131.914 159.258 131.758 158.906 131.758H158.047V133.711H157.109V128.828H158.789C159.375 128.828 160.508 128.828 160.508 130.117C160.508 131.016 159.922 131.211 159.57 131.328C160.234 131.367 160.273 131.797 160.391 132.422C160.43 132.812 160.508 133.476 160.625 133.711ZM159.531 130.273C159.531 129.609 159.063 129.609 158.828 129.609H158.047V130.976H158.789C159.414 130.976 159.531 130.547 159.531 130.273ZM53.6328 74.6093C53.6328 73.5546 53.0859 72.6171 52.1875 72.1093L28.2422 58.3203C27.8516 58.0859 27.3828 57.9687 26.9141 57.9296H26.6797C26.2109 57.9296 25.7813 58.0859 25.3516 58.3203L1.44531 72.1093C0.546875 72.6171 0 73.5937 0 74.6093L0.0390625 111.719C0.0390625 112.227 0.3125 112.695 0.742187 112.969C1.17188 113.242 1.71875 113.242 2.1875 112.969L16.4062 104.805C17.3047 104.258 17.8516 103.32 17.8516 102.305V84.9609C17.8516 83.9453 18.3984 82.9687 19.2969 82.4609L25.3516 78.9843C25.8203 78.7109 26.2891 78.5937 26.7969 78.5937C27.3047 78.5937 27.8125 78.7109 28.2422 78.9843L34.2969 82.4609C35.1953 82.9687 35.7422 83.9453 35.7422 84.9609V102.305C35.7422 103.32 36.2891 104.297 37.1875 104.805L51.4063 112.969C51.8359 113.242 52.4219 113.242 52.8516 112.969C53.2813 112.734 53.5547 112.227 53.5547 111.719L53.6328 74.6093ZM184.57 34.1015V103.008C184.57 104.023 184.023 105 183.125 105.508L159.18 119.336C158.281 119.844 157.188 119.844 156.289 119.336L132.344 105.508C131.445 105 130.898 104.023 130.898 103.008V75.3515C130.898 74.3359 131.445 73.3593 132.344 72.8515L156.289 59.0234C157.188 58.5156 158.281 58.5156 159.18 59.0234L165.156 62.4609C165.82 62.8515 166.68 62.3437 166.68 61.6015V24.8828C166.68 23.789 167.852 23.0859 168.828 23.6328L183.086 31.6015C183.984 32.0703 184.57 33.0468 184.57 34.1015ZM166.602 84.4531C166.602 84.1796 166.445 83.9453 166.25 83.8281L158.047 79.0624C157.813 78.9453 157.539 78.9453 157.305 79.0624L149.102 83.8281C148.867 83.9453 148.75 84.1796 148.75 84.4531V93.9453C148.75 94.2187 148.906 94.4531 149.102 94.5703L157.305 99.2968C157.539 99.414 157.812 99.414 158.008 99.2968L166.211 94.5703C166.445 94.4531 166.562 94.2187 166.562 93.9453V84.4531H166.602ZM248.555 84.1796C249.453 83.6718 250 82.6953 250 81.6796V74.9999C250 73.9843 249.453 73.0078 248.555 72.4999L224.766 58.6718C223.867 58.164 222.773 58.164 221.875 58.6718L197.93 72.4999C197.031 73.0078 196.484 73.9843 196.484 74.9999V102.656C196.484 103.711 197.031 104.648 197.93 105.156L221.719 118.711C222.578 119.219 223.672 119.219 224.57 118.711L238.945 110.703C239.922 110.156 239.922 108.75 238.945 108.203L214.844 94.3749C214.375 94.1015 214.102 93.6328 214.102 93.1249V84.4531C214.102 83.9453 214.375 83.4765 214.844 83.2031L222.344 78.8671C222.773 78.5937 223.359 78.5937 223.789 78.8671L231.289 83.2031C231.719 83.4765 232.031 83.9453 232.031 84.4531V91.2499C232.031 92.3437 233.242 93.0468 234.219 92.4999L248.555 84.1796ZM218.359 85.5468C218.203 85.664 218.086 85.8203 218.086 86.0156V91.3281C218.086 91.5234 218.203 91.7187 218.359 91.7968L222.969 94.4531C223.125 94.5703 223.359 94.5703 223.516 94.4531L228.125 91.7968C228.281 91.6796 228.398 91.5234 228.398 91.3281V86.0156C228.398 85.8203 228.281 85.6249 228.125 85.5468L223.516 82.8906C223.359 82.7734 223.125 82.7734 222.969 82.8906L218.359 85.5468ZM119.062 102.539V75.039C119.062 74.0234 118.437 73.0468 117.539 72.539L93.6719 58.789C92.8516 58.3203 91.7187 58.2421 90.7812 58.789L66.9141 72.539C66.0156 73.0468 65.3906 73.9843 65.3906 75.039V102.539C65.3906 103.633 66.1328 104.57 66.9531 105.039L90.8594 118.789C91.7969 119.336 92.8906 119.297 93.75 118.789L117.578 105.039C118.281 104.648 118.789 103.984 118.984 103.203C119.023 103.008 119.062 102.773 119.062 102.539ZM90.0391 53.7499L89.7266 53.9453H90.1563L90.0391 53.7499ZM119.805 104.609L119.648 104.336V104.687L119.805 104.609Z" fill="#4ECB71"/>
</svg>
