<svg width="225" height="200" viewBox="0 0 225 200" fill="none" xmlns="http://www.w3.org/2000/svg">
<g clip-path="url(#clip0_210_78)">
<path d="M184.639 64.7577C182.249 63.938 179.839 63.1784 177.411 62.4797C177.818 60.813 178.194 59.1665 178.527 57.549C183.999 30.9867 180.422 9.58757 168.204 2.54195C156.489 -4.21243 137.33 2.83055 117.981 19.67C116.074 21.3325 114.209 23.043 112.389 24.7998C111.17 23.6317 109.93 22.4862 108.668 21.3639C88.3895 3.35862 68.0632 -4.22998 55.8579 2.83581C44.1535 9.61125 40.6877 29.7279 45.614 54.9016C46.1042 57.3948 46.6576 59.8751 47.2737 62.3402C44.3965 63.1577 41.6202 64.0279 38.9632 64.9542C15.1877 73.2437 0.00439453 86.234 0.00439453 99.7086C0.00439453 113.625 16.3044 127.584 41.0676 136.048C43.0752 136.731 45.0995 137.365 47.1386 137.947C46.4766 140.602 45.8886 143.275 45.3754 145.963C40.679 170.7 44.3465 190.341 56.0193 197.074C68.0754 204.026 88.3105 196.881 108.013 179.657C109.611 178.256 111.173 176.817 112.699 175.338C114.671 177.241 116.695 179.088 118.769 180.877C137.855 197.3 156.704 203.931 168.366 197.181C180.411 190.208 184.325 169.108 179.243 143.437C178.843 141.426 178.394 139.424 177.896 137.435C179.318 137.014 180.712 136.581 182.072 136.13C207.816 127.601 224.566 113.811 224.566 99.7086C224.566 86.1849 208.892 73.1069 184.639 64.7577ZM179.055 127.024C177.826 127.43 176.569 127.824 175.283 128.204C172.441 119.207 168.606 109.64 163.912 99.7551C168.391 90.106 172.079 80.6612 174.841 71.7226C177.139 72.3876 179.368 73.0884 181.517 73.8279C202.297 80.9823 214.973 91.5586 214.973 99.7086C214.973 108.389 201.283 119.659 179.055 127.024ZM169.832 145.3C172.08 156.651 172.4 166.914 170.911 174.938C169.575 182.147 166.885 186.953 163.559 188.879C156.482 192.975 141.348 187.651 125.026 173.605C123.097 171.941 121.214 170.224 119.38 168.456C125.708 161.536 132.032 153.491 138.204 144.556C149.06 143.593 159.316 142.017 168.617 139.867C169.076 141.717 169.481 143.527 169.832 145.3ZM76.5623 188.171C69.6483 190.612 64.1412 190.682 60.8123 188.763C53.729 184.678 50.7842 168.907 54.8009 147.752C55.2784 145.253 55.8251 142.767 56.4404 140.297C65.6386 142.332 75.8202 143.795 86.7018 144.678C92.9158 153.421 99.4219 161.457 105.979 168.494C104.585 169.842 103.159 171.156 101.701 172.434C92.9877 180.05 84.257 185.453 76.5623 188.171ZM44.1711 126.971C33.2211 123.228 24.1781 118.364 17.9798 113.056C12.4097 108.287 9.59825 103.551 9.59825 99.7086C9.59825 91.5314 21.7886 81.1016 42.1211 74.013C44.5886 73.1533 47.1711 72.3419 49.8509 71.5805C52.6614 80.7209 56.3474 90.2779 60.7956 99.9419C56.2895 109.749 52.5509 119.459 49.7132 128.707C47.8519 128.174 46.004 127.595 44.1711 126.971ZM55.029 53.0586C50.8088 31.4911 53.6114 15.2218 60.6649 11.1384C68.1772 6.78932 84.7895 12.9902 102.299 28.5376C103.441 29.5536 104.564 30.5904 105.668 31.6472C99.1439 38.6534 92.6974 46.6297 86.5386 55.3209C75.9772 56.2998 65.8676 57.8718 56.5728 59.9779C56 57.6851 55.4852 55.3774 55.029 53.0586ZM151.895 76.9788C149.699 73.1866 147.422 69.4422 145.066 65.7481C152.231 66.6542 159.096 67.8569 165.542 69.327C163.607 75.5305 161.195 82.0156 158.355 88.6648C156.28 84.7268 154.126 80.8307 151.895 76.9788ZM112.393 38.5042C116.818 43.2981 121.249 48.6498 125.608 54.4569C116.766 54.0392 107.909 54.0375 99.0667 54.4516C103.43 48.6981 107.899 43.3534 112.393 38.5042ZM72.6377 77.0437C70.4345 80.8646 68.3207 84.7364 66.2983 88.656C63.5053 82.0305 61.1149 75.5156 59.1632 69.2244C65.5702 67.7911 72.4026 66.6191 79.5219 65.7297C77.1391 69.4464 74.8437 73.2194 72.6377 77.0437ZM79.7263 134.369C72.3711 133.548 65.436 132.437 59.0307 131.042C61.0132 124.638 63.4561 117.985 66.3097 111.217C68.3402 115.14 70.4627 119.014 72.6754 122.837C74.9509 126.767 77.307 130.616 79.7263 134.369ZM112.658 161.588C108.111 156.683 103.575 151.256 99.1465 145.419C103.447 145.588 107.83 145.674 112.285 145.674C116.862 145.674 121.387 145.571 125.84 145.373C121.468 151.315 117.053 156.75 112.658 161.588ZM158.446 110.872C161.447 117.714 163.977 124.332 165.986 130.626C159.475 132.112 152.446 133.309 145.039 134.197C147.412 130.435 149.711 126.625 151.932 122.771C154.192 118.853 156.363 114.886 158.446 110.872ZM143.623 117.978C140.221 123.887 136.628 129.684 132.85 135.359C126.006 135.845 119.146 136.085 112.285 136.081C105.296 136.081 98.4991 135.864 91.9535 135.439C88.0764 129.777 84.415 123.97 80.9772 118.031C77.5551 112.123 74.3598 106.087 71.3965 99.9367C74.3524 93.7847 77.5389 87.7462 80.9491 81.8341L80.9483 81.8349C84.3568 75.9209 87.9889 70.1387 91.8369 64.5007C98.5149 63.9955 105.363 63.7323 112.284 63.7323C119.237 63.7323 126.095 63.9981 132.771 64.5069C136.58 70.1364 140.189 75.8988 143.591 81.7832C147.012 87.6826 150.241 93.6916 153.272 99.8007C150.272 105.972 147.054 112.035 143.623 117.978ZM163.412 10.8516C170.932 15.1884 173.856 32.677 169.132 55.6112C168.829 57.0756 168.492 58.5639 168.123 60.0762C158.805 57.9253 148.689 56.3262 138.097 55.3323C131.926 46.5455 125.532 38.5569 119.114 31.6411C120.796 30.0196 122.518 28.4402 124.279 26.9042C140.858 12.477 156.353 6.78055 163.412 10.8516ZM112.285 79.656C123.36 79.656 132.338 88.634 132.338 99.7086C132.338 110.783 123.36 119.761 112.285 119.761C101.211 119.761 92.2325 110.783 92.2325 99.7086C92.2325 88.634 101.211 79.656 112.285 79.656Z" fill="#00D8FF"/>
</g>
<defs>
<clipPath id="clip0_210_78">
<rect width="224.57" height="200" fill="white"/>
</clipPath>
</defs>
</svg>
