<svg width="200" height="200" viewBox="0 0 200 200" fill="none" xmlns="http://www.w3.org/2000/svg">
<g clip-path="url(#clip0_290_90)">
<path d="M0 0H200V200H0V0Z" fill="#F03E2F"/>
<path d="M61.5979 51.8171C61.5979 69.0015 72.3995 79.2281 94.026 84.6187L116.942 89.839C137.409 94.4578 149.871 105.93 149.871 124.617C150.023 132.78 147.324 140.741 142.24 147.13C142.24 128.484 132.423 118.411 108.742 112.352L86.2417 107.325C68.2229 103.286 54.3167 93.8562 54.3167 73.5562C54.2282 65.6969 56.7936 58.0376 61.5979 51.8171Z" fill="white"/>
<path d="M128.159 120.042C137.934 126.186 142.218 134.778 142.218 147.109C134.129 157.291 119.915 163.005 103.211 163.005C75.0902 163.005 55.4105 149.408 51.0371 125.778H78.0418C81.5184 136.627 90.7246 141.653 103.012 141.653C118.012 141.653 127.984 133.791 128.181 119.998M75.6355 77.2938C71.1886 74.7067 67.5268 70.9617 65.0402 66.4578C62.5701 61.9864 61.3791 56.9209 61.598 51.8172C69.4043 41.7203 82.9824 35.5563 99.5355 35.5563C128.181 35.5563 144.754 50.4203 148.845 71.3438H122.867C120.003 63.0938 112.831 56.6719 99.7543 56.6719C85.7824 56.6719 76.248 64.6625 75.7012 77.2938" fill="#F9B1AB"/>
</g>
<defs>
<clipPath id="clip0_290_90">
<rect width="200" height="200" fill="white"/>
</clipPath>
</defs>
</svg>
