<svg width="200" height="200" viewBox="0 0 200 200" fill="none" xmlns="http://www.w3.org/2000/svg">
<g clip-path="url(#clip0_290_94)">
<path d="M100.006 40.0032C73.3387 40.0032 56.6777 53.3313 50.0059 79.9985C60.0027 66.6688 71.673 61.6704 85.0027 65.0032C92.6137 66.9001 98.0527 72.4188 104.076 78.5344C113.879 88.4829 125.226 100 150.006 100C176.671 100 193.334 86.6704 200.006 59.9969C190.006 73.3334 178.34 78.3344 165.007 75C157.398 73.1016 151.965 67.5844 145.934 61.4688C136.137 51.5204 124.793 40.0032 100.006 40.0032ZM50.0059 100C23.3402 100 6.67773 113.33 0.00585938 140.003C10.0048 126.667 21.6704 121.666 35.0027 125C42.6137 126.898 48.0527 132.416 54.0762 138.531C63.8793 148.48 75.2262 159.997 100.006 159.997C126.671 159.997 143.334 146.669 150.006 120.002C140.006 133.332 128.34 138.33 115.007 134.997C107.398 133.1 101.965 127.581 95.934 121.466C86.1371 111.517 74.7934 100 50.0059 100Z" fill="#38BDF8"/>
</g>
<defs>
<clipPath id="clip0_290_94">
<rect width="200" height="200" fill="white"/>
</clipPath>
</defs>
</svg>
